
<svg width="20px" height="21px" viewBox="0 0 20 21" version="1.1" xmlns="http://www.w3.org/2000/svg" xmlns:xlink="http://www.w3.org/1999/xlink">
    <!-- Generator: Sketch 45.2 (43514) - http://www.bohemiancoding.com/sketch -->
    <desc>Created with Sketch.</desc>
    <defs></defs>
    <g id="Page-1" stroke="none" stroke-width="1" fill="none" fill-rule="evenodd">
        <g id="Главная--Copy" transform="translate(-1018.000000, -590.000000)" fill-rule="nonzero" fill="#484848">
            <g id="Group-3" transform="translate(379.000000, 497.000000)">
                <g id="Телефон" transform="translate(352.000000, 77.000000)">
                    <g id="icon" transform="translate(287.000000, 16.000000)">
                        <path d="M14.9696552,4.23862069 C15.7393103,4.23862069 16.3627586,3.61931034 16.3627586,2.84827586 L16.3627586,1.39310345 C16.3627586,0.62137931 15.74,0 14.9696552,0 C14.1993103,0 13.5772414,0.620689655 13.5772414,1.39310345 L13.5772414,2.84896552 C13.577931,3.61931034 14.2,4.23862069 14.9696552,4.23862069 Z" id="Shape"></path>
                        <path d="M19.9186207,2.40965517 L17.1144828,2.40965517 L17.1144828,3.11793103 C17.1144828,4.28689655 16.1648276,5.23931034 14.9937931,5.23931034 C13.8213793,5.23931034 12.8737931,4.28689655 12.8737931,3.11793103 L12.8737931,2.40965517 L7.21517241,2.40965517 L7.21517241,3.11793103 C7.21517241,4.28689655 6.26413793,5.23931034 5.0937931,5.23931034 C3.92344828,5.23931034 2.97310345,4.28758621 2.97310345,3.11793103 L2.97310345,2.40965517 L0.143448276,2.37448276 L0.143448276,20.0834483 L1.55862069,20.0834483 L18.5268966,20.0834483 L19.94,20.0793103 L19.9186207,2.40965517 Z M18.5255172,18.6731034 L1.55862069,18.6731034 L1.55862069,7.36 L18.5268966,7.36 L18.5268966,18.6731034 L18.5255172,18.6731034 Z" id="Shape"></path>
                        <path d="M5.07172414,4.23862069 C5.84137931,4.23862069 6.46551724,3.61931034 6.46551724,2.84827586 L6.46551724,1.39310345 C6.46551724,0.620689655 5.84137931,0 5.07172414,0 C4.30206897,0 3.68,0.620689655 3.68,1.39310345 L3.68,2.84896552 C3.68,3.61931034 4.30137931,4.23862069 5.07172414,4.23862069 Z" id="Shape"></path>
                        <rect id="Rectangle-path" x="7.21931034" y="8.87793103" width="2.22827586" height="1.96689655"></rect>
                        <rect id="Rectangle-path" x="10.822069" y="8.87793103" width="2.23034483" height="1.96689655"></rect>
                        <rect id="Rectangle-path" x="14.1634483" y="8.87793103" width="2.22827586" height="1.96689655"></rect>
                        <rect id="Rectangle-path" x="7.21931034" y="12.1441379" width="2.22827586" height="1.96551724"></rect>
                        <rect id="Rectangle-path" x="10.822069" y="12.1441379" width="2.23034483" height="1.96551724"></rect>
                        <rect id="Rectangle-path" x="14.1634483" y="12.1441379" width="2.22827586" height="1.96551724"></rect>
                        <rect id="Rectangle-path" x="7.21931034" y="15.4751724" width="2.22827586" height="1.96551724"></rect>
                        <rect id="Rectangle-path" x="3.68" y="12.1441379" width="2.22689655" height="1.96551724"></rect>
                        <rect id="Rectangle-path" x="3.68" y="15.4751724" width="2.22689655" height="1.96551724"></rect>
                        <rect id="Rectangle-path" x="10.822069" y="15.4751724" width="2.23034483" height="1.96551724"></rect>
                        <rect id="Rectangle-path" x="14.1634483" y="15.4751724" width="2.22827586" height="1.96551724"></rect>
                    </g>
                </g>
            </g>
        </g>
    </g>
</svg>