<?xml version="1.0" encoding="iso-8859-1"?>
<!-- Generator: Adobe Illustrator 19.0.0, SVG Export Plug-In . SVG Version: 6.00 Build 0)  -->
<svg xmlns="http://www.w3.org/2000/svg" xmlns:xlink="http://www.w3.org/1999/xlink" version="1.1" id="Layer_1" x="0px" y="0px" viewBox="0 0 290.626 290.626" style="enable-background:new 0 0 290.626 290.626;" xml:space="preserve" width="512px" height="512px">
<g>
	<g>
		<g>
			<path d="M121.875,107.813h9.375c0-21.047,5.297-42.553,13.181-53.513l-7.608-5.475     C127.739,61.448,121.875,84.605,121.875,107.813z" fill="#75c1ba"/>
			<path d="M178.125,32.813v-9.375c-10.622,0-21.197,5.189-31.439,15.436l6.628,6.628C161.733,37.083,170.081,32.813,178.125,32.813     z" fill="#75c1ba"/>
			<path d="M247.069,38.878l-6.638,6.619c14.039,14.067,22.083,31.65,22.069,48.248c-0.009,14.114-3.028,33.938-17.372,48.248     l6.619,6.637c13.153-13.125,20.109-32.105,20.128-54.877C271.894,74.691,262.852,54.684,247.069,38.878z" fill="#75c1ba"/>
			<path d="M220.181,156.22c-3.572,1.481-7.617,3.155-13.931,3.155v9.375c8.18,0,13.575-2.236,17.512-3.867     c0.98-0.403,1.87-0.778,2.719-1.064l-2.967-8.887C222.478,155.273,221.381,155.728,220.181,156.22z" fill="#75c1ba"/>
			<path d="M156.783,177.633c8.578-4.294,26.733-8.883,40.092-8.883v-9.375c-15.361,0-34.58,5.016-44.283,9.867L156.783,177.633z" fill="#75c1ba"/>
			<path d="M265.819,29.503C247.673,11.325,221.259,0.023,196.88,0c-0.037,0-0.07,0-0.103,0c-28.359,0-52.805,8.808-68.841,24.806     c-15.764,15.745-24.811,39.164-24.811,64.256c0,17.184-7.603,42.52-22.064,57.623c-8.287,8.288-9.263,21.6-2.967,31.092     L55.842,200.03c-14.288-9.788-33.352-8.794-45.089,2.902C4.219,209.452,0,219.952,0,229.688     c0,22.163,14.222,31.228,28.809,32.602c0.656,2.7,1.945,6.567,4.5,11.681c4.589,9.183,16.983,16.655,27.633,16.655     c10.467,0,19.716-3.717,26.747-10.748c13.856-13.856,8.55-34.894,2.747-44.934l22.678-22.678     c3.052,1.538,7.055,2.648,11.306,2.648c0.567,0,1.139-0.019,1.711-0.061c5.006-0.356,12.234-2.461,18.244-10.477     c12.656-16.875,43.861-16.875,57.188-16.875c24.675,0,48.694-9.277,64.247-24.806c15.975-15.942,24.788-40.43,24.816-68.939     C290.653,67.266,282.534,46.247,265.819,29.503z M77.986,234.136l2.836,3.295c4.017,4.669,11.733,24.319,0.239,35.817     c-5.236,5.236-12.192,8.002-20.119,8.002c-7.2,0-16.195-5.362-19.247-11.47c-1.641-3.281-2.62-5.864-3.23-7.805     c5.222-0.797,11.597-2.484,15.511-4.833l-4.823-8.039c-3.455,2.072-12.131,4.022-16.336,4.022     c-7.05,0-23.442-2.283-23.442-23.438c0-7.144,3.286-15.422,7.997-20.119c9.098-9.075,25.172-8.972,35.813,0.23l3.3,2.845     l28.186-28.186c3.745,2.597,7.27,3.497,10.027,4.195c2.597,0.656,4.003,1.05,5.114,2.161c0.412,0.413,0.577,1.12,0.909,2.902     c0.553,2.963,1.402,7.181,5.372,12.314L77.986,234.136z M259.186,156.056c-13.833,13.819-35.377,22.069-57.623,22.069     c-14.728,0-49.219,0-64.688,20.625c-3.122,4.163-6.956,6.431-11.409,6.745c-4.673,0.281-8.761-1.669-9.656-2.564     c-4.706-4.706-5.302-7.884-5.883-10.95c-0.469-2.484-0.994-5.302-3.492-7.8c-2.991-2.991-6.417-3.858-9.45-4.622     c-3.262-0.825-6.089-1.538-9.3-4.753c-5.822-5.822-5.822-15.67,0.075-21.572c17.002-17.742,24.741-45.703,24.741-64.172     c0-22.617,8.044-43.622,22.059-57.619c14.264-14.231,36.356-22.069,62.217-22.069c0.033,0,0.066,0,0.098,0     c21.98,0.023,45.858,10.27,62.311,26.747c15.08,15.108,22.092,33.417,22.069,57.623     C281.227,119.752,273.389,141.886,259.186,156.056z" fill="#75c1ba"/>
		</g>
	</g>
</g>
<g>
</g>
<g>
</g>
<g>
</g>
<g>
</g>
<g>
</g>
<g>
</g>
<g>
</g>
<g>
</g>
<g>
</g>
<g>
</g>
<g>
</g>
<g>
</g>
<g>
</g>
<g>
</g>
<g>
</g>
</svg>
