<?xml version="1.0" encoding="UTF-8"?>
<svg width="50px" height="35px" viewBox="0 0 50 35" version="1.1" xmlns="http://www.w3.org/2000/svg" xmlns:xlink="http://www.w3.org/1999/xlink">
    <!-- Generator: Sketch 45.2 (43514) - http://www.bohemiancoding.com/sketch -->
    <title>foot-side-view-outline</title>
    <desc>Created with Sketch.</desc>
    <defs></defs>
    <g id="Page-1" stroke="none" stroke-width="1" fill="none" fill-rule="evenodd">
        <g id="Услуга-детально-NEW-2-вариант" transform="translate(-1036.000000, -844.000000)" fill-rule="nonzero" fill="#75C1BA">
            <g id="Текст" transform="translate(132.000000, 446.000000)">
                <g id="Преимущества" transform="translate(0.000000, 330.000000)">
                    <g id="Иконки" transform="translate(1.000000, 56.000000)">
                        <g id="Group-3" transform="translate(903.000000, 3.000000)">
                            <g id="foot-side-view-outline" transform="translate(0.000000, 9.000000)">
                                <path d="M48.2461988,20.7482456 L47.9967836,20.1891813 C47.0406433,18.0774854 46.0526316,15.8894737 46.0991228,11.1087719 L46.0991228,1.1 C46.0991228,0.597076023 45.6894737,0.188304094 45.1874269,0.188304094 C44.6853801,0.188304094 44.2760234,0.596783626 44.2760234,1.1 L44.2760234,11.1 C44.2225146,16.2739766 45.344152,18.7540936 46.3342105,20.9406433 L46.5815789,21.4888889 C48.2108187,25.1619883 48.5064327,28.0906433 47.4383041,29.9672515 C46.3307018,31.9081871 44.0461988,32.2125731 44.0766082,32.2160819 L7.40116959,32.2160819 C2.95438596,32.0894737 1.80263158,29.5008772 1.82397661,27.9909357 C1.83479532,27.1327485 2.18888889,26.5862573 2.42573099,26.5862573 C4.66812865,26.5862573 8.5754386,26.1608187 10.4403509,25.7900585 C16.1690058,24.6684211 27.3581871,18.7502924 30.4935673,13.1926901 C31.4388889,11.5225146 31.8076023,7.66345029 31.6222222,1.39532164 L31.6099415,0.98128655 C31.6099415,0.478362573 31.2020468,0.0695906433 30.6982456,0.0695906433 C30.1961988,0.0695906433 29.7868421,0.478070175 29.7868421,0.98128655 L29.7991228,1.44766082 C30.0236842,9.11081871 29.3345029,11.5312865 28.9052632,12.294152 C26.1011696,17.2687135 15.5128655,22.9342105 10.0885965,24.0005848 C8.30380117,24.3479532 4.56754386,24.7590643 2.4254386,24.7590643 C1.04736842,24.7590643 0.0280701754,26.1035088 0.000584795322,27.9622807 C-0.0394736842,30.7894737 2.24122807,33.8909357 7.37339181,34.0368421 L44.1760234,34.0315789 C44.3078947,34.0154971 47.4111111,33.6540936 49.0049708,30.8888889 C50.4096491,28.4649123 50.1552632,25.0535088 48.2461988,20.7482456 Z" id="Shape"></path>
                                <path d="M33.65,24.4125731 C34.5225146,24.5426901 35.3289474,24.6084795 36.0733918,24.6084795 C38.4608187,24.6084795 40.1915205,23.9321637 41.2400585,22.5897661 C43.4605263,19.7371345 41.55,15.0947368 41.4681287,14.8979532 C41.275731,14.4350877 40.7362573,14.2160819 40.2769006,14.4090643 C39.8105263,14.6023392 39.5932749,15.1391813 39.7871345,15.6020468 C40.2321637,16.6640351 41.1067251,19.7906433 39.801462,21.4643275 C38.8614035,22.6678363 36.8836257,23.055848 33.9225146,22.6073099 C33.4277778,22.5254386 32.9611111,22.874269 32.8862573,23.3690058 C32.8096491,23.871345 33.1535088,24.3377193 33.65,24.4125731 Z" id="Shape"></path>
                            </g>
                        </g>
                    </g>
                </g>
            </g>
        </g>
    </g>
</svg>