<?xml version="1.0" encoding="UTF-8"?>
<svg width="29px" height="45px" viewBox="0 0 29 45" version="1.1" xmlns="http://www.w3.org/2000/svg" xmlns:xlink="http://www.w3.org/1999/xlink">
    <!-- Generator: Sketch 45.2 (43514) - http://www.bohemiancoding.com/sketch -->
    <title>spine</title>
    <desc>Created with Sketch.</desc>
    <defs></defs>
    <g id="Page-1" stroke="none" stroke-width="1" fill="none" fill-rule="evenodd">
        <g id="Услуга-детально-NEW-2-вариант" transform="translate(-455.000000, -836.000000)" fill-rule="nonzero" fill="#75C1BA">
            <g id="Текст" transform="translate(132.000000, 446.000000)">
                <g id="Преимущества" transform="translate(0.000000, 330.000000)">
                    <g id="Иконки" transform="translate(1.000000, 56.000000)">
                        <g id="Group-3" transform="translate(322.000000, 3.000000)">
                            <g id="spine" transform="translate(0.000000, 1.000000)">
                                <path d="M26.1030427,3.83572954 L24.1384164,3.83572954 L24.1384164,1.53688612 C24.1384164,0.998807829 23.8647331,0.509092527 23.4076868,0.22772242 C22.9560854,-0.0509252669 22.3813345,-0.0755871886 21.907153,0.163825623 C20.4381673,0.905765125 17.4625623,1.38523132 14.3263345,1.38523132 C11.1899466,1.38523132 8.21434164,0.905765125 6.7447153,0.163505338 C6.2716548,-0.0751067616 5.69738434,-0.0510854093 5.24530249,0.226921708 C4.78745552,0.509092527 4.51409253,0.998647687 4.51409253,1.53688612 L4.51409253,3.83572954 L2.54946619,3.83572954 C1.16327402,3.83572954 0.0355516014,4.96345196 0.0355516014,6.34964413 L0.0355516014,8.09679715 C0.0355516014,9.48298932 1.16327402,10.6107117 2.54946619,10.6107117 L4.51409253,10.6107117 L4.51409253,11.7579715 C4.51409253,12.6685409 5.04624555,13.5073665 5.86985765,13.8950712 C8.64864769,15.2029537 13.4018327,15.2692527 14.3264947,15.2692527 C16.9970285,15.2692527 20.620089,14.908452 22.7797687,13.8957117 C23.6051423,13.5086477 24.1385765,12.6693416 24.1385765,11.7571708 L24.1385765,10.6107117 L26.1032028,10.6107117 C27.489395,10.6107117 28.6171174,9.48298932 28.6171174,8.09679715 L28.6171174,6.34964413 C28.6169573,4.96345196 27.4892349,3.83572954 26.1030427,3.83572954 Z M26.2148221,8.09679715 C26.2148221,8.15845196 26.1646975,8.20857651 26.1030427,8.20857651 L22.9373488,8.20857651 C22.273879,8.20857651 21.7362811,8.74617438 21.7362811,9.40964413 L21.7362811,11.7317082 C19.9266726,12.5694128 16.6178114,12.8671174 14.3263345,12.8671174 C12.0297331,12.8671174 8.71766904,12.5697331 6.91622776,11.7325089 L6.91622776,9.40980427 C6.91622776,8.74633452 6.37862989,8.20873665 5.71516014,8.20873665 L2.54946619,8.20873665 C2.48781139,8.20873665 2.43768683,8.1586121 2.43768683,8.0969573 L2.43768683,6.34964413 C2.43768683,6.28798932 2.48781139,6.23786477 2.54946619,6.23786477 L5.71516014,6.23786477 C6.37862989,6.23786477 6.91622776,5.7002669 6.91622776,5.03679715 L6.91622776,2.81514235 C8.79982206,3.43233096 11.4501779,3.78720641 14.3263345,3.78720641 C17.2024911,3.78720641 19.8531673,3.43233096 21.7362811,2.81530249 L21.7362811,5.03679715 C21.7362811,5.7002669 22.273879,6.23786477 22.9373488,6.23786477 L26.1030427,6.23786477 C26.1646975,6.23786477 26.2148221,6.28798932 26.2148221,6.34964413 L26.2148221,8.09679715 Z" id="Shape"></path>
                                <path d="M25.7979715,18.6658719 L24.1385765,18.6658719 L24.1385765,16.3670285 C24.1385765,15.8367972 23.8581673,15.3350712 23.407847,15.0578648 C22.9562456,14.7792171 22.3814947,14.7545552 21.9073132,14.993968 C20.4383274,15.7359075 17.4627224,16.2153737 14.3264947,16.2153737 C11.1901068,16.2153737 8.21450178,15.7359075 6.74487544,14.9936477 C6.27069395,14.7545552 5.69594306,14.7790569 5.24674377,15.0565836 C4.79498221,15.3341103 4.51425267,15.8363167 4.51425267,16.3671886 L4.51425267,18.666032 L2.85453737,18.666032 C1.30003559,18.666032 0.0353914591,19.930516 0.0353914591,21.4851779 L0.0353914591,22.6223488 C0.0353914591,24.1766904 1.29987544,25.4413345 2.85453737,25.4413345 L4.51393238,25.4413345 L4.51393238,26.5885943 C4.51393238,27.4991637 5.04608541,28.3379893 5.86969751,28.725694 C8.64848754,30.0335765 13.4016726,30.0998754 14.3263345,30.0998754 C16.9971886,30.0998754 20.6204093,29.7390747 22.7796085,28.7263345 C23.6049822,28.3392705 24.1384164,27.4999644 24.1384164,26.5877936 L24.1384164,25.4413345 L25.7978114,25.4413345 C27.3523132,25.4413345 28.6169573,24.1768505 28.6169573,22.6223488 L28.6169573,21.4851779 C28.6169573,19.9303559 27.3524733,18.6658719 25.7979715,18.6658719 Z M26.2148221,22.6220285 C26.2148221,22.8518327 26.0277758,23.038879 25.7978114,23.038879 L22.9373488,23.038879 C22.273879,23.038879 21.7362811,23.5764769 21.7362811,24.2399466 L21.7362811,26.5620107 C19.927153,27.3997153 16.6179715,27.6974199 14.3263345,27.6974199 C12.0297331,27.6974199 8.71766904,27.4000356 6.91622776,26.5628114 L6.91622776,24.2399466 C6.91622776,23.5764769 6.37862989,23.038879 5.71516014,23.038879 L2.85453737,23.038879 C2.62457295,23.038879 2.43752669,22.8518327 2.43752669,22.6220285 L2.43752669,21.4848577 C2.43752669,21.2548932 2.62457295,21.067847 2.85453737,21.067847 L5.715,21.067847 C6.37846975,21.067847 6.91606762,20.5302491 6.91606762,19.8667794 L6.91606762,17.6451246 C8.79966192,18.2623132 11.4500178,18.6171886 14.3261744,18.6171886 C17.202331,18.6171886 19.8530071,18.2623132 21.736121,17.6452847 L21.736121,19.8667794 C21.736121,20.5302491 22.2737189,21.067847 22.9371886,21.067847 L25.7976512,21.067847 C26.0276157,21.067847 26.2146619,21.2548932 26.2146619,21.4848577 L26.2146619,22.6220285 L26.2148221,22.6220285 Z" id="Shape"></path>
                                <path d="M9.22035587,4.31935943 C8.55688612,4.31935943 8.01928826,4.8569573 8.01928826,5.52042705 L8.01928826,10.1376512 C8.01928826,10.801121 8.55688612,11.3387189 9.22035587,11.3387189 C9.88382562,11.3387189 10.4214235,10.801121 10.4214235,10.1376512 L10.4214235,5.52042705 C10.4214235,4.8569573 9.88382562,4.31935943 9.22035587,4.31935943 Z" id="Shape"></path>
                                <path d="M9.22035587,19.2641637 C8.55688612,19.2641637 8.01928826,19.8017616 8.01928826,20.4652313 L8.01928826,24.9223132 C8.01928826,25.5857829 8.55688612,26.1233808 9.22035587,26.1233808 C9.88382562,26.1233808 10.4214235,25.5857829 10.4214235,24.9223132 L10.4214235,20.4652313 C10.4214235,19.8017616 9.88382562,19.2641637 9.22035587,19.2641637 Z" id="Shape"></path>
                                <path d="M25.7979715,33.5533452 L24.1385765,33.5533452 L24.1385765,31.2543416 C24.1385765,30.7241103 23.8581673,30.2223843 23.406726,29.9443772 C22.9551246,29.6666904 22.3808541,29.6421886 21.9073132,29.881121 C20.4383274,30.6230605 17.4627224,31.1025267 14.3264947,31.1025267 C11.1901068,31.1025267 8.21450178,30.6230605 6.74487544,29.8808007 C6.27069395,29.6417082 5.69594306,29.66621 5.24674377,29.9437367 C4.79498221,30.2212633 4.51425267,30.7234698 4.51425267,31.2543416 L4.51425267,33.5533452 L2.85453737,33.5533452 C1.30003559,33.5533452 0.0353914591,34.8178292 0.0353914591,36.372331 L0.0353914591,37.5095018 C0.0353914591,39.0640036 1.29987544,40.3286477 2.85453737,40.3286477 L4.51393238,40.3286477 L4.51393238,41.4757473 C4.51393238,42.3859964 5.04592527,43.2248221 5.86985765,43.6130071 C8.64896797,44.9208897 13.4016726,44.9871886 14.3263345,44.9871886 C16.9970285,44.9871886 20.620089,44.6263879 22.7796085,43.6134875 C23.6049822,43.2264235 24.1384164,42.3871174 24.1384164,41.4749466 L24.1384164,40.3286477 L25.7978114,40.3286477 C27.3523132,40.3286477 28.6169573,39.0641637 28.6169573,37.5095018 L28.6169573,36.372331 C28.6169573,34.8179893 27.3524733,33.5533452 25.7979715,33.5533452 Z M26.2148221,37.5093416 C26.2148221,37.739306 26.0277758,37.9263523 25.7978114,37.9263523 L22.9373488,37.9263523 C22.273879,37.9263523 21.7362811,38.4639502 21.7362811,39.1274199 L21.7362811,41.4493238 C19.9268327,42.2871886 16.6178114,42.5848932 14.3263345,42.5848932 C12.0297331,42.5848932 8.71766904,42.2875089 6.91622776,41.4502847 L6.91622776,39.1274199 C6.91622776,38.4639502 6.37862989,37.9263523 5.71516014,37.9263523 L2.85453737,37.9263523 C2.62457295,37.9263523 2.43752669,37.739306 2.43752669,37.5093416 L2.43752669,36.3721708 C2.43752669,36.1422064 2.62457295,35.9553203 2.85453737,35.9553203 L5.715,35.9553203 C6.37846975,35.9553203 6.91606762,35.4177224 6.91606762,34.7542527 L6.91606762,32.5325979 C8.79966192,33.1497865 11.4500178,33.5045018 14.3261744,33.5045018 C17.202331,33.5045018 19.8530071,33.1496263 21.736121,32.5325979 L21.736121,34.7542527 C21.736121,35.4177224 22.2737189,35.9553203 22.9371886,35.9553203 L25.7976512,35.9553203 C26.0276157,35.9553203 26.2146619,36.1422064 26.2146619,36.3721708 L26.2146619,37.5093416 L26.2148221,37.5093416 Z" id="Shape"></path>
                                <path d="M9.22035587,34.151637 C8.55688612,34.151637 8.01928826,34.6892349 8.01928826,35.3527046 L8.01928826,39.8099466 C8.01928826,40.4734164 8.55688612,41.0110142 9.22035587,41.0110142 C9.88382562,41.0110142 10.4214235,40.4734164 10.4214235,39.8099466 L10.4214235,35.3527046 C10.4214235,34.6892349 9.88382562,34.151637 9.22035587,34.151637 Z" id="Shape"></path>
                            </g>
                        </g>
                    </g>
                </g>
            </g>
        </g>
    </g>
</svg>