<?xml version="1.0" encoding="UTF-8"?>
<svg width="50px" height="35px" viewBox="0 0 50 35" version="1.1" xmlns="http://www.w3.org/2000/svg" xmlns:xlink="http://www.w3.org/1999/xlink">
    <!-- Generator: Sketch 45.2 (43514) - http://www.bohemiancoding.com/sketch -->
    <title>runer-silhouette-running-fast</title>
    <desc>Created with Sketch.</desc>
    <defs></defs>
    <g id="Page-1" stroke="none" stroke-width="1" fill="none" fill-rule="evenodd">
        <g id="Услуга-детально-NEW-2-вариант" transform="translate(-144.000000, -843.000000)" fill-rule="nonzero" fill="#75C1BA">
            <g id="Текст" transform="translate(132.000000, 446.000000)">
                <g id="Преимущества" transform="translate(0.000000, 330.000000)">
                    <g id="Иконки" transform="translate(1.000000, 56.000000)">
                        <g id="Group-2">
                            <g id="runer-silhouette-running-fast" transform="translate(11.000000, 11.000000)">
                                <path d="M15.416291,3.43452869 L30.8376025,3.43452869 C31.2428279,3.43452869 31.571209,3.10604508 31.571209,2.70081967 C31.571209,2.29559426 31.2428279,1.96711066 30.8376025,1.96711066 L15.416291,1.96711066 C15.0110656,1.96711066 14.682582,2.29559426 14.682582,2.70081967 C14.682582,3.10604508 15.0110656,3.43452869 15.416291,3.43452869 Z" id="Shape"></path>
                                <path d="M1.62428279,10.6082992 L17.0454918,10.6082992 C17.4507172,10.6082992 17.7792008,10.2798156 17.7792008,9.87459016 C17.7792008,9.46936475 17.4507172,9.14098361 17.0454918,9.14098361 L1.62428279,9.14098361 C1.21905738,9.14098361 0.89057377,9.46936475 0.89057377,9.87459016 C0.89057377,10.2798156 1.21905738,10.6082992 1.62428279,10.6082992 Z" id="Shape"></path>
                                <path d="M5.76413934,18.1571721 C5.76413934,18.5623975 6.09262295,18.8909836 6.49784836,18.8909836 L21.9190574,18.8909836 C22.3242828,18.8909836 22.6527664,18.5623975 22.6527664,18.1571721 C22.6527664,17.7519467 22.3242828,17.4235656 21.9190574,17.4235656 L6.49784836,17.4235656 C6.09262295,17.4235656 5.76413934,17.7519467 5.76413934,18.1571721 Z" id="Shape"></path>
                                <path d="M14.5897541,26.6844262 L0.733709016,26.6844262 C0.328483607,26.6844262 0,27.0128074 0,27.4180328 C0,27.8232582 0.328483607,28.1517418 0.733709016,28.1517418 L14.5897541,28.1517418 C14.9949795,28.1517418 15.3234631,27.8232582 15.3234631,27.4180328 C15.3234631,27.0128074 14.9949795,26.6844262 14.5897541,26.6844262 Z" id="Shape"></path>
                                <path d="M39.5214139,8.03463115 C41.7345287,8.03463115 43.5286885,6.24026639 43.5286885,4.02704918 C43.5286885,1.81383197 41.7344262,0.0195696721 39.5214139,0.0195696721 C37.3077869,0.0195696721 35.5133197,1.81393443 35.5133197,4.02704918 C35.5132172,6.24026639 37.3076844,8.03463115 39.5214139,8.03463115 Z" id="Shape"></path>
                                <path d="M46.1133197,6.88063525 C43.8121926,10.1038934 40.7308402,10.4771516 37.4150615,8.50870902 C37.1893443,8.37489754 36.1879098,7.82315574 35.9661885,7.69139344 C30.6320697,4.52479508 25.3042008,5.76659836 21.7311475,10.7702869 C20.2128074,12.8984631 23.7244877,14.9156762 25.2258197,12.8122951 C27.0719262,10.2270492 29.4193648,9.4789959 31.9866803,10.2978484 C30.6721311,12.5796107 29.5228484,14.847541 27.901127,18.0696721 C26.2789959,21.2918033 22.697541,23.864959 19.25625,21.852459 C16.7731557,20.401127 14.5339139,23.9683402 17.0095287,25.4151639 C21.7076844,28.1609631 27.2163934,26.4748975 30.0285861,22.9056352 C30.126127,22.9577869 30.2292008,23.0048156 30.3423156,23.0443648 C32.6396516,23.8447746 35.651127,25.9757172 36.56875,26.7309426 C37.4860656,27.486168 39.0621926,31.3335041 39.9981557,33.2665984 C41.1336066,35.6121926 44.8005123,33.903791 43.6608607,31.5482582 C42.5998975,29.3550205 40.8190574,24.9776639 39.4300205,23.8701844 C38.3157787,22.9819672 36.1525615,21.3288934 34.3178279,20.3910861 C35.5591189,17.9867828 36.8515369,15.6084016 38.2120902,13.2711066 C42.5489754,14.5998975 46.671209,13.0346311 49.6070697,8.92213115 C51.1266393,6.7942623 47.6157787,4.77704918 46.1133197,6.88063525 Z" id="Shape"></path>
                            </g>
                        </g>
                    </g>
                </g>
            </g>
        </g>
    </g>
</svg>