<?xml version="1.0" encoding="UTF-8"?>
<svg width="42px" height="44px" viewBox="0 0 42 44" version="1.1" xmlns="http://www.w3.org/2000/svg" xmlns:xlink="http://www.w3.org/1999/xlink">
    <!-- Generator: Sketch 45.2 (43514) - http://www.bohemiancoding.com/sketch -->
    <title>like</title>
    <desc>Created with Sketch.</desc>
    <defs></defs>
    <g id="Page-1" stroke="none" stroke-width="1" fill="none" fill-rule="evenodd">
        <g id="Услуга-детально-NEW-2-вариант" transform="translate(-748.000000, -838.000000)" fill-rule="nonzero" fill="#75C1BA">
            <g id="Текст" transform="translate(132.000000, 446.000000)">
                <g id="Преимущества" transform="translate(0.000000, 330.000000)">
                    <g id="Иконки" transform="translate(1.000000, 56.000000)">
                        <g id="Group-3" transform="translate(615.000000, 3.000000)">
                            <g id="like" transform="translate(0.000000, 3.000000)">
                                <path d="M40.6998927,29.3008584 C41.5831545,28.1742489 42.0067597,26.9665236 41.9526824,25.7227468 C41.8986052,24.3527897 41.2857296,23.2802575 40.7810086,22.6223176 C41.3668455,21.1622318 41.5921674,18.8639485 39.6363734,17.0793991 C38.2033262,15.7725322 35.7698498,15.1866953 32.3990343,15.348927 C30.0286481,15.4570815 28.0458155,15.8987124 27.9646996,15.9167382 L27.9556867,15.9167382 C27.5050429,15.9978541 27.0273605,16.0969957 26.5406652,16.2051502 C26.5046137,15.6283262 26.6037554,14.195279 27.6672747,10.9686695 C28.9290773,7.12918455 28.8569742,4.19098712 27.4329399,2.22618026 C25.9368026,0.16223176 23.5483906,0 22.8453863,0 C22.1694206,0 21.5475322,0.279399142 21.1059013,0.793133047 C20.1054721,1.95579399 20.2226395,4.10085837 20.3488197,5.09227468 C19.1591202,8.28283262 15.8243562,16.1060086 13.0033262,18.2781116 C12.9492489,18.3141631 12.9041845,18.3592275 12.8591202,18.4042918 C12.0299356,19.2785408 11.4711373,20.2248927 11.0925966,21.0540773 C10.5608369,20.7656652 9.95697425,20.6034335 9.30804721,20.6034335 L3.81019313,20.6034335 C1.73723176,20.6034335 0.0608369099,22.2888412 0.0608369099,24.3527897 L0.0608369099,38.9987124 C0.0608369099,41.0716738 1.74624464,42.7480687 3.81019313,42.7480687 L9.30804721,42.7480687 C10.1101931,42.7480687 10.8582618,42.4957082 11.4711373,42.0630901 L13.5891631,42.3154506 C13.9136266,42.360515 19.681867,43.0905579 25.6033262,42.9733906 C26.6758584,43.0545064 27.6853004,43.0995708 28.6226395,43.0995708 C30.2359442,43.0995708 31.6419528,42.9733906 32.8136266,42.72103 C35.5715665,42.1351931 37.4552575,40.9635193 38.4106223,39.2420601 C39.1406652,37.9261803 39.1406652,36.6193133 39.0234979,35.7901288 C40.8170601,34.1678112 41.1325107,32.3742489 41.0694206,31.1124464 C41.0333691,30.3824034 40.8711373,29.760515 40.6998927,29.3008584 Z M3.81019313,40.3145923 C3.08015021,40.3145923 2.4943133,39.7197425 2.4943133,38.9987124 L2.4943133,24.3437768 C2.4943133,23.6137339 3.08916309,23.027897 3.81019313,23.027897 L9.30804721,23.027897 C10.0380901,23.027897 10.623927,23.6227468 10.623927,24.3437768 L10.623927,38.9896996 C10.623927,39.7197425 10.0290773,40.3055794 9.30804721,40.3055794 L3.81019313,40.3055794 L3.81019313,40.3145923 Z M38.3925966,28.2463519 C38.0140558,28.6429185 37.9419528,29.2467811 38.2303648,29.7154506 C38.2303648,29.7244635 38.5998927,30.3553648 38.6449571,31.2206009 C38.7080472,32.4012876 38.1402361,33.4467811 36.9505365,34.3390558 C36.5269313,34.6635193 36.3556867,35.2223176 36.5359442,35.7270386 C36.5359442,35.7360515 36.9234979,36.9257511 36.2925966,38.0523605 C35.6887339,39.1339056 34.3458155,39.9090129 32.3089056,40.3416309 C30.6775751,40.693133 28.4604077,40.7562232 25.7385193,40.5399142 C25.7024678,40.5399142 25.6574034,40.5399142 25.6123391,40.5399142 C19.8170601,40.6660944 13.958691,39.9090129 13.8956009,39.9 L13.886588,39.9 L12.9762876,39.7918455 C13.0303648,39.539485 13.0574034,39.2690987 13.0574034,38.9987124 L13.0574034,24.3437768 C13.0574034,23.9562232 12.9943133,23.5776824 12.8861588,23.2261803 C13.0483906,22.6223176 13.4990343,21.2793991 14.5625536,20.1347639 C18.6093348,16.9261803 22.5659871,6.10171674 22.7372318,5.63304721 C22.8093348,5.44377682 22.8273605,5.23648069 22.791309,5.02918455 C22.6380901,4.01974249 22.6921674,2.78497854 22.9084764,2.41545064 C23.3861588,2.42446352 24.675,2.55965665 25.4501073,3.63218884 C26.3694206,4.90300429 26.3333691,7.17424893 25.3419528,10.1845494 C23.8277897,14.772103 23.7016094,17.1875536 24.9003219,18.251073 C25.4951717,18.7828326 26.2883047,18.8098712 26.8651288,18.6025751 C27.4149142,18.4763948 27.9376609,18.3682403 28.4333691,18.2871245 C28.4694206,18.2781116 28.514485,18.2690987 28.5505365,18.2600858 C31.3174893,17.6562232 36.2745708,17.2866953 37.99603,18.8549356 C39.4561159,20.1888412 38.4196352,21.9553648 38.3024678,22.1446352 C37.9689914,22.6493562 38.068133,23.3072961 38.5187768,23.7128755 C38.5277897,23.7218884 39.4741416,24.6141631 39.519206,25.8128755 C39.5552575,26.6150215 39.1767167,27.4351931 38.3925966,28.2463519 Z" id="Shape"></path>
                            </g>
                        </g>
                    </g>
                </g>
            </g>
        </g>
    </g>
</svg>