<?xml version="1.0" encoding="UTF-8"?>
<svg width="48px" height="75px" viewBox="0 0 48 75" version="1.1" xmlns="http://www.w3.org/2000/svg" xmlns:xlink="http://www.w3.org/1999/xlink">
    <!-- Generator: Sketch 45 (43475) - http://www.bohemiancoding.com/sketch -->
    <title>Shape</title>
    <desc>Created with Sketch.</desc>
    <defs></defs>
    <g id="Symbols" stroke="none" stroke-width="1" fill="none" fill-rule="evenodd">
        <g id="Карта" transform="translate(-452.000000, -249.000000)" fill-rule="nonzero" fill="#77B8B1">
            <g id="Пин">
                <g transform="translate(452.000000, 249.000000)">
                    <path d="M23.9999241,0 C10.7452015,0 0,10.7450497 0,23.9997723 C0,26.2223782 0.303462148,28.3736349 0.868943139,30.416046 C1.09528734,31.233982 1.36261943,32.0347638 1.6709394,32.8150517 L2.39870205,34.4688369 L23.9999241,74.3854189 L45.629534,34.4122129 L46.285492,32.921772 C46.6117252,32.1076311 46.8943898,31.2714783 47.1310569,30.4161978 C47.696386,28.3736349 48,26.2223782 48,23.9999241 C47.9998482,10.7450497 37.2546467,0 23.9999241,0 Z M23.9999241,35.5639724 C17.5030409,35.5639724 12.2183364,30.2792679 12.2183364,23.7823847 C12.2183364,17.2865641 17.5030409,12.0018596 23.9999241,12.0018596 C30.4968073,12.0018596 35.7815118,17.2865641 35.7815118,23.7823847 C35.7815118,30.2792679 30.4968073,35.5639724 23.9999241,35.5639724 Z" id="Shape"></path>
                </g>
            </g>
        </g>
    </g>
</svg>