<?xml version="1.0" encoding="iso-8859-1"?>
<!-- Generator: Adobe Illustrator 19.1.0, SVG Export Plug-In . SVG Version: 6.00 Build 0)  -->
<svg xmlns="http://www.w3.org/2000/svg" xmlns:xlink="http://www.w3.org/1999/xlink" version="1.1" id="Capa_1" x="0px" y="0px" viewBox="0 0 322.993 322.993" style="enable-background:new 0 0 322.993 322.993;" xml:space="preserve" width="512px" height="512px">
<g>
	<path d="M322.993,49.066v12.854h-49.808V49.066H322.993z M302.106,77.08h-28.921v12.854h28.921V77.08z M273.185,117.948h49.808   v-12.854h-49.808V117.948z M302.106,133.116h-28.921v12.854h28.921V133.116z M273.185,173.984h49.808V161.13h-49.808V173.984z    M280.949,247.224c0,35.881-29.191,65.072-65.072,65.072s-65.072-29.191-65.072-65.072c0-18.914,8.181-36.337,21.928-48.503   l-14.068-24.371l-44.062,76.325l13.156,49.133c0.925,3.426-1.112,6.954-4.544,7.873c-0.553,0.148-1.118,0.219-1.665,0.219   c-2.841,0-5.437-1.889-6.208-4.762l-9.827-36.71l-17.397,30.129c-1.195,2.057-3.348,3.213-5.572,3.213   c-1.093,0-2.198-0.276-3.207-0.861c-3.078-1.774-4.126-5.707-2.352-8.779l16.993-29.422l-35.605,9.537   c-0.553,0.148-1.118,0.219-1.671,0.219c-2.834,0-5.437-1.889-6.202-4.762c-0.919-3.426,1.118-6.954,4.544-7.873l48.021-12.867   l44.48-77.038H59.39l-35.965,35.952c-1.253,1.253-2.899,1.883-4.544,1.883c-1.645,0-3.291-0.63-4.544-1.883   c-2.513-2.513-2.513-6.575,0-9.088l26.877-26.877H6.427c-3.548,0-6.427-2.879-6.427-6.42c0-3.548,2.879-6.427,6.427-6.427h33.979   l-26.067-26.061c-2.513-2.513-2.513-6.575,0-9.088s6.575-2.513,9.088,0l35.155,35.155h88.947l-44.069-76.332L54.345,65.576   c-3.432-0.919-5.469-4.441-4.544-7.873c0.919-3.426,4.454-5.469,7.873-4.544l36.697,9.833L76.981,32.876   c-1.767-3.078-0.713-7.005,2.359-8.779c3.066-1.774,6.999-0.72,8.773,2.352l16.999,29.435l9.537-35.624   c0.919-3.426,4.422-5.482,7.873-4.544c3.425,0.919,5.463,4.441,4.544,7.873L114.198,71.63l44.467,77.013l24.274-42.044V43.635   c0-18.162,14.775-32.938,32.938-32.938s32.938,14.775,32.938,32.938V191.15C268.732,202.828,280.949,223.966,280.949,247.224z    M169.797,155.063h13.143V132.3L169.797,155.063z M182.94,190.687v-22.77h-13.149L182.94,190.687z M268.095,247.224   c0-19.73-10.964-37.565-28.619-46.53l-3.515-1.787V43.635c0-11.08-9.01-20.084-20.084-20.084c-11.073,0-20.084,9.004-20.084,20.084   v155.272l-3.515,1.787c-17.655,8.972-28.619,26.806-28.619,46.53c0,28.792,23.426,52.218,52.218,52.218   S268.095,276.016,268.095,247.224z M257.388,247.224c0,22.886-18.619,41.504-41.511,41.504c-22.886,0-41.504-18.619-41.504-41.504   c0-18.76,12.674-35.232,30.823-40.058l2.384-0.636v-37.501h16.601v37.494l2.384,0.643   C244.715,211.992,257.388,228.471,257.388,247.224z M217.928,219.557c-0.99-4.396-5.411-7.288-9.917-6.26   c-15.733,3.56-26.723,17.32-26.723,33.465c0,4.569,3.721,8.291,8.291,8.291c4.57,0,8.291-3.721,8.291-8.291   c0-8.207,5.797-15.482,13.798-17.288C216.122,228.451,218.93,224.004,217.928,219.557z" fill="#75c1ba"/>
</g>
<g>
</g>
<g>
</g>
<g>
</g>
<g>
</g>
<g>
</g>
<g>
</g>
<g>
</g>
<g>
</g>
<g>
</g>
<g>
</g>
<g>
</g>
<g>
</g>
<g>
</g>
<g>
</g>
<g>
</g>
</svg>
