<?xml version="1.0" encoding="iso-8859-1"?>
<!-- Generator: Adobe Illustrator 18.0.0, SVG Export Plug-In . SVG Version: 6.00 Build 0)  -->
<!DOCTYPE svg PUBLIC "-//W3C//DTD SVG 1.1//EN" "http://www.w3.org/Graphics/SVG/1.1/DTD/svg11.dtd">
<svg xmlns="http://www.w3.org/2000/svg" xmlns:xlink="http://www.w3.org/1999/xlink" version="1.1" id="Capa_1" x="0px" y="0px" viewBox="0 0 60.02 60.02" style="enable-background:new 0 0 60.02 60.02;" xml:space="preserve" width="512px" height="512px">
<g>
	<path d="M30.02,0.01c-0.936,0-1.861,0.049-2.776,0.133L27.242,0.13l-0.275,0.034c-0.065,0.007-0.129,0.017-0.193,0.024l-0.48,0.06   c-0.022,0.003-0.043,0.007-0.065,0.01c-0.43,0.055-0.858,0.117-1.283,0.19c-0.058,0.01-0.115,0.021-0.172,0.031   c-0.401,0.071-0.799,0.148-1.195,0.235c-0.098,0.021-0.195,0.045-0.293,0.068c-0.351,0.081-0.7,0.165-1.046,0.257   c-0.168,0.045-0.334,0.095-0.501,0.142c-0.272,0.078-0.545,0.156-0.814,0.242c-0.277,0.088-0.55,0.184-0.824,0.279   c-0.156,0.055-0.314,0.106-0.469,0.164c-4.892,1.8-9.259,4.86-12.67,8.955c-0.014,0.017-0.017,0.038-0.03,0.055   C2.618,16.073,0.02,22.743,0.02,30.01c0,0.3,0.014,0.597,0.023,0.895L0,30.889l0.128,1.575c0.001,0.009,0.002,0.017,0.003,0.026   C0.173,33,0.227,33.507,0.295,34.01c0.005,0.036,0.009,0.072,0.014,0.108c0.065,0.469,0.141,0.935,0.227,1.397   c0.014,0.074,0.026,0.149,0.04,0.224c0.08,0.412,0.171,0.82,0.268,1.226c0.028,0.119,0.053,0.239,0.083,0.358   c0.089,0.354,0.189,0.704,0.29,1.052c0.047,0.161,0.088,0.323,0.137,0.482c0.094,0.304,0.199,0.603,0.302,0.902   c0.156,0.455,0.325,0.906,0.504,1.354c0.077,0.193,0.149,0.39,0.231,0.581c0.113,0.266,0.237,0.527,0.358,0.791   c0.092,0.2,0.181,0.403,0.277,0.601c0.126,0.258,0.261,0.513,0.394,0.768c0.102,0.195,0.202,0.391,0.308,0.583   c0.047,0.084,0.087,0.171,0.135,0.255l0.27,0.48l0.019,0.001C9.37,54.043,19.009,60.01,30.02,60.01c16.542,0,30-13.458,30-30   S46.562,0.01,30.02,0.01z M25.62,2.363c0.405,1.785,0.998,2.899,1.836,3.473l0.353,0.242l0.418-0.089   c0.058-0.014,5.82-1.188,9.559,1.989c2.361,2.006,3.45,5.365,3.235,9.985L41,18.41l0.319,0.313c0.038,0.038,3.862,3.814,4.748,6.59   c2.571,8.064-3.821,18.052-3.886,18.151l-0.176,0.28l0.016,0.322c0.003,0.06,0.058,1.457-1.077,2.563   c-1.134,1.106-3.158,1.578-5.85,1.383c-1.612-0.12-3.278-0.191-4.89-0.26c-6.713-0.285-13.654-0.58-18.558-4.522l-0.328-0.264   l-0.417,0.05c-0.027,0.004-2.642,0.313-5.557,0.212c-0.032-0.06-0.062-0.122-0.093-0.182c-0.325-0.615-0.625-1.238-0.901-1.871   c-0.035-0.08-0.074-0.158-0.108-0.239c-0.281-0.661-0.53-1.333-0.758-2.011c-0.04-0.118-0.082-0.236-0.12-0.355   c-0.221-0.69-0.415-1.389-0.582-2.095c-0.021-0.089-0.041-0.177-0.062-0.266c-0.17-0.757-0.315-1.521-0.422-2.295   c3.232,1.305,5.62,2.56,6.954,3.661l0.345,0.289c1.171,0.983,2.613,2.2,4.363,2.145c0.843-0.03,1.764-0.016,2.736,0.003   c2.881,0.053,6.144,0.109,8.73-1.088c0.032-0.015,3.283-1.442,7.701-1.92l2.771-0.3l-2.33-1.53   c-0.049-0.032-4.909-3.271-5.57-7.667c-0.302-2.009,0.344-3.993,1.919-5.898c1.111-1.344,1.357-3.158,0.626-4.619   c-0.457-0.916-1.215-1.581-2.193-1.923c-0.521-0.187-1.091,0.092-1.274,0.612c-0.183,0.521,0.092,1.092,0.613,1.274   c0.491,0.172,0.839,0.477,1.065,0.93c0.377,0.755,0.229,1.717-0.378,2.451c-1.601,1.936-2.408,3.974-2.438,6.074   c-0.855,0.557-1.842,1.051-2.919,1.051c-0.552,0-1,0.447-1,1s0.448,1,1,1c1.194,0,2.259-0.39,3.173-0.88   c0.717,2.964,2.815,5.347,4.398,6.777c-3.491,0.647-5.861,1.688-5.991,1.746c-2.184,1.011-5.203,0.96-7.868,0.909   c-1.001-0.018-1.948-0.033-2.846-0.001c-0.95,0-2.046-0.874-3.002-1.678l-0.358-0.3c-1.539-1.271-4.129-2.634-7.696-4.059   c1.527-0.146,2.974-0.716,4.191-1.653c1.459,1.117,3.229,1.68,5,1.68c2.062,0,4.125-0.758,5.694-2.272   c0.397-0.384,0.409-1.017,0.025-1.414c-0.384-0.396-1.017-0.408-1.414-0.025c-2.374,2.291-6.237,2.291-8.611,0   c-0.047-0.046-0.106-0.067-0.159-0.102c-0.053-0.035-0.101-0.078-0.159-0.102c-0.063-0.026-0.129-0.029-0.195-0.042   c-0.061-0.011-0.119-0.032-0.181-0.032c-0.062,0-0.12,0.02-0.182,0.032c-0.066,0.012-0.132,0.016-0.194,0.041   c-0.058,0.024-0.107,0.068-0.161,0.103c-0.053,0.034-0.111,0.056-0.158,0.101c-1.16,1.119-2.695,1.719-4.306,1.716   c0.001-6.977,2.573-13.361,6.811-18.268c0.336-0.39,0.682-0.769,1.037-1.137c0.247-0.256,0.499-0.508,0.755-0.755   c0.332-0.32,0.671-0.63,1.017-0.932c0.288-0.251,0.58-0.497,0.878-0.736c0.361-0.29,0.729-0.57,1.103-0.841   c0.243-0.176,0.485-0.354,0.734-0.523c0.472-0.319,0.954-0.62,1.444-0.909c0.235-0.139,0.471-0.276,0.71-0.409   c0.535-0.295,1.079-0.574,1.633-0.833c0.19-0.089,0.382-0.175,0.575-0.26c0.621-0.274,1.25-0.531,1.891-0.759   c0.11-0.039,0.221-0.074,0.331-0.112C22.453,3.012,24.016,2.615,25.62,2.363z M6.548,45.248c1.868-0.001,3.452-0.129,4.175-0.201   c4.901,3.743,11.249,4.326,17.552,4.622c-0.794,1.598-1.669,4.375-1.014,8.204c-3.819-0.375-7.415-1.52-10.63-3.278   c1.021-0.37,1.95-1.087,2.699-2.12c0.324-0.446,0.225-1.072-0.222-1.396c-0.447-0.324-1.072-0.224-1.397,0.223   c-0.742,1.022-1.698,1.586-2.69,1.586s-1.948-0.563-2.69-1.586c-0.219-0.3-0.573-0.428-0.917-0.392   C9.551,49.25,7.914,47.345,6.548,45.248z M30.02,58.01c-0.234,0-0.466-0.012-0.699-0.018c-0.904-4.464,0.554-7.271,1.187-8.224   c1.475,0.063,2.984,0.13,4.438,0.238c0.458,0.034,0.901,0.052,1.328,0.052c2.692,0,4.742-0.682,6.103-2.031   c1.375-1.364,1.608-3.008,1.641-3.725c1.054-1.704,6.608-11.278,3.956-19.597c-0.88-2.762-3.935-6.061-4.937-7.092   c0.152-5.048-1.177-8.802-3.955-11.161c-3.793-3.224-9.049-2.765-10.734-2.515c-0.201-0.27-0.476-0.803-0.727-1.819   c0.792-0.068,1.591-0.11,2.4-0.11c15.439,0,28,12.561,28,28S45.459,58.01,30.02,58.01z" fill="#75c1ba"/>
	<circle cx="12.02" cy="26.01" r="1" fill="#75c1ba"/>
</g>
<g>
</g>
<g>
</g>
<g>
</g>
<g>
</g>
<g>
</g>
<g>
</g>
<g>
</g>
<g>
</g>
<g>
</g>
<g>
</g>
<g>
</g>
<g>
</g>
<g>
</g>
<g>
</g>
<g>
</g>
</svg>
