<?xml version="1.0" encoding="iso-8859-1"?>
<!-- Generator: Adobe Illustrator 19.0.0, SVG Export Plug-In . SVG Version: 6.00 Build 0)  -->
<svg xmlns="http://www.w3.org/2000/svg" xmlns:xlink="http://www.w3.org/1999/xlink" version="1.1" id="Layer_1" x="0px" y="0px" viewBox="0 0 228.855 228.855" style="enable-background:new 0 0 228.855 228.855;" xml:space="preserve" width="512px" height="512px">
<g>
	<g>
		<g>
			<path d="M221.464,192.188c-0.187-0.142-18.918-14.141-34.255-29.478c-12.015-12.015-14.865-21.508-15.471-24.246     c1.584-4.076,6.856-18.478,7.158-30.335c0.225-8.767-9.564-17.803-20.95-19.334c-12.249-1.665-21.589,5.508-24.955,19.152     l-1.022,4.151c-1.488,6.069-2.695,11.001-3.494,12.701c-0.357-0.032-0.811-0.087-1.207-0.134c-2.239-0.276-5.629-0.691-10.659,0     c-9.122,1.255-17.529,6.865-23.063,15.396c-4.778,7.363-6.461,15.783-4.502,22.522c2.938,10.109,10.971,9.095,18.034,8.195     c5.585-0.699,11.916-1.503,19.466,0.916c14.483,4.648,48.246,41.805,60.034,55.733c0.73,0.86,1.787,1.377,2.916,1.424     c0.055,0.004,0.112,0.004,0.168,0.004c1.069,0,2.097-0.422,2.857-1.184l29.387-29.387c0.831-0.829,1.259-1.981,1.174-3.149     C222.995,193.963,222.405,192.89,221.464,192.188z M189.891,218.872c-10.517-12.149-43.781-49.388-60.876-54.873c0,0,0,0-0.002,0     c-4.778-1.531-9.198-2.008-13.151-2.008c-3.705,0-7.002,0.418-9.797,0.773c-8.016,1.01-8.391,0.548-9.259-2.438     c-1.314-4.514,0.002-10.448,3.52-15.866c4.192-6.463,10.691-10.87,17.385-11.794c3.985-0.545,6.53-0.233,8.572,0.02     c8.718,1.061,9.533-2.328,13.536-18.663l1.018-4.143c3.168-12.832,11.411-13.703,16.032-13.076     c7.641,1.026,14.059,6.972,13.952,11.119c-0.312,12.164-6.925,28.405-6.992,28.567c-0.246,0.6-0.345,1.251-0.288,1.898     c0.049,0.541,1.391,13.471,17.957,30.035c11.748,11.75,25.091,22.479,31.434,27.411L189.891,218.872z" fill="#75c1ba"/>
			<path d="M97.38,119.906l0.947-4.171c1.381-6.096,2.503-11.044,3.271-12.76c0.359,0.024,0.813,0.071,1.209,0.114     c2.251,0.233,5.646,0.596,10.659-0.185c9.099-1.417,17.404-7.173,22.79-15.795c4.648-7.45,6.185-15.897,4.107-22.601     c-3.115-10.058-11.115-8.905-18.174-7.88c-5.569,0.805-11.884,1.716-19.48-0.576c-14.562-4.395-48.966-40.96-60.995-54.676     C40.97,0.529,39.905,0.027,38.774,0c-1.126,0.016-2.217,0.426-3.003,1.235L6.899,31.136c-0.815,0.844-1.223,2-1.118,3.168     c0.107,1.168,0.714,2.234,1.667,2.92C7.639,37.358,26.61,51.03,42.211,66.095c12.224,11.802,15.24,21.248,15.895,23.978     c-1.513,4.099-6.534,18.588-6.631,30.449c-0.071,8.771,9.874,17.634,21.285,18.967c1.02,0.118,2.016,0.177,2.993,0.177     C86.531,139.666,94.509,132.469,97.38,119.906z M89.5,118.107C86.559,130.99,78.336,132,73.699,131.463     c-7.659-0.896-14.177-6.727-14.143-10.878c0.099-12.164,6.429-28.516,6.495-28.678c0.235-0.608,0.322-1.259,0.253-1.906     c-0.057-0.541-1.625-13.447-18.478-29.723c-11.954-11.541-25.482-22.028-31.91-26.85L38.553,9.986     c10.726,11.96,44.636,48.615,61.821,53.8c9.308,2.809,17.203,1.665,22.97,0.84c8.002-1.156,8.381-0.695,9.302,2.273     c1.391,4.494,0.177,10.448-3.245,15.929c-4.078,6.534-10.499,11.052-17.178,12.09c-3.975,0.612-6.522,0.347-8.57,0.134     c-8.712-0.947-9.491,2.494-13.206,18.896L89.5,118.107z" fill="#75c1ba"/>
		</g>
	</g>
</g>
<g>
</g>
<g>
</g>
<g>
</g>
<g>
</g>
<g>
</g>
<g>
</g>
<g>
</g>
<g>
</g>
<g>
</g>
<g>
</g>
<g>
</g>
<g>
</g>
<g>
</g>
<g>
</g>
<g>
</g>
</svg>
